HIERARCHY
ROOT Hips
{
	OFFSET 0.000000 0.000000 0.000000 
	CHANNELS 6 Xposition Yposition Zposition Yrotation Zrotation Xrotation 
	JOINT Lumbar
	{
		OFFSET 0.000000 0.000000 0.000000 
		CHANNELS 3 Zrotation Xrotation Yrotation
		JOINT Neck
		{
			OFFSET 0.000000 0.445665 0.000000 
			CHANNELS 3 Zrotation Xrotation Yrotation
			End Site
			{
				OFFSET 0.000000 0.227535 0.000000 
			}
		}
		JOINT RightShoulder
		{
			OFFSET 0.019635 0.377685 0.194865 
			CHANNELS 3 Zrotation Xrotation Yrotation
			JOINT RightElbow
			{
				OFFSET 0.000000 -0.243375 0.000000 
				CHANNELS 2 Zrotation Yrotation
				JOINT RightWrist
				{
					OFFSET 0.000000 -0.264825 0.000000 
					CHANNELS 2 Zrotation Xrotation
					End Site
					{
						OFFSET 0.006600 -0.176220 0.000990 
					}
				}
			}
		}
		JOINT LeftShoulder
		{
			OFFSET 0.019635 0.377685 -0.194865 
			CHANNELS 3 Zrotation Xrotation Yrotation
			JOINT LeftElbow
			{
				OFFSET 0.000000 -0.243375 0.000000 
				CHANNELS 2 Zrotation Yrotation
				JOINT LeftWrist
				{
					OFFSET 0.000000 -0.264825 0.000000 
					CHANNELS 2 Zrotation Xrotation
					End Site
					{
						OFFSET 0.006600 -0.176220 -0.000990 
					}
				}
			}
		}
	}
	JOINT RightHip
	{
		OFFSET 0.052140 -0.069960 0.075570 
		CHANNELS 3 Zrotation Xrotation Yrotation
		JOINT RightKnee
		{
			OFFSET 0.000000 -0.402270 0.000000 
			CHANNELS 1 Zrotation
			JOINT RightAnkle
			{
				OFFSET 0.000000 -0.404085 0.000000 
				CHANNELS 3 Zrotation Xrotation Yrotation
				End Site
				{
					OFFSET 0.204105 -0.089430 0.008415 
				}
			}
		}
	}
	JOINT LeftHip
	{
		OFFSET 0.052140 -0.069960 -0.075570 
		CHANNELS 3 Zrotation Xrotation Yrotation
		JOINT LeftKnee
		{
			OFFSET 0.000000 -0.402270 0.000000 
			CHANNELS 1 Zrotation
			JOINT LeftAnkle
			{
				OFFSET 0.000000 -0.404085 0.000000 
				CHANNELS 3 Zrotation Xrotation Yrotation
				End Site
				{
					OFFSET 0.204105 -0.089430 -0.008415 
				}
			}
		}
	}
}
MOTION
Frames: 17
Frame Time: 0.02
-0 0.95578 -0 176.89779 0 -4.23527 6.95775 5.29575 0.63157 -31.96848 -0.52106 2.56613 -11.12468 -69.20529 -86.04759 22.30973 43.34161 -36.3545 2.2446 28.14288 72.7857 62.51479 20.13573 -70.66021 -24.89857 1.15516 -0.99762 6.10735 -3.24932 -11.33265 2.91798 -4.51256 -10.25255 -2.03595 2.50065 4.02022 -8.95898 7.0419 5.96007 10.48278
0.00043 0.95585 0.00036 176.94054 0 -4.23989 6.806 5.29249 0.60427 -31.93401 -0.52434 2.55622 -11.22201 -69.17835 -86.04321 22.29342 43.23594 -36.30503 2.24968 28.05359 72.72474 62.82243 19.94317 -70.60707 -24.91874 1.2278 -1.08239 6.09492 -3.33891 -11.13122 2.84771 -4.47651 -10.19812 -2.05651 2.49796 4.11191 -8.86104 7.01076 5.91363 10.34416
0.00086 0.95592 0.00071 176.98266 0 -4.24447 6.65458 5.28913 0.57733 -31.89963 -0.52756 2.54658 -11.31867 -69.15181 -86.03885 22.27702 43.13121 -36.25592 2.25476 27.96433 72.66404 63.12832 19.752 -70.55451 -24.93846 1.29978 -1.16651 6.08239 -3.42819 -10.93098 2.77787 -4.44058 -10.14355 -2.07701 2.49513 4.20323 -8.76346 6.97977 5.86744 10.20648
0.00129 0.95599 0.00107 177.02239 0 -4.24906 6.50333 5.28558 0.55153 -31.86511 -0.53038 2.5382 -11.41558 -69.12687 -86.03458 22.26025 43.02882 -36.20849 2.26047 27.87315 72.60332 63.43172 19.56441 -70.50437 -24.95639 1.36988 -1.24847 6.06958 -3.51723 -10.73422 2.70907 -4.40468 -10.08764 -2.09781 2.4919 4.29341 -8.6657 6.94887 5.82186 10.07199
0.00172 0.95606 0.00142 177.07443 0 -4.25373 6.35157 5.28337 0.51967 -31.83112 -0.53505 2.52351 -11.51358 -69.09375 -86.02988 22.24566 42.91355 -36.15307 2.2635 27.79073 72.54214 63.75019 19.35776 -70.44217 -24.98356 1.45 -1.34142 6.05852 -3.60767 -10.51987 2.63476 -4.36853 -10.03852 -2.11746 2.49102 4.38897 -8.56809 6.91728 5.77313 9.92154
0.00216 0.95613 0.00179 177.10059 0 -4.25812 6.20079 5.27811 0.50065 -31.79621 -0.536 2.52195 -11.60755 -69.07778 -86.02605 22.22633 42.82597 -36.11398 2.27174 27.6908 72.48239 64.03518 19.19169 -70.40498 -24.99134 1.50884 -1.41136 6.04359 -3.69495 -10.34235 2.57215 -4.333 -9.97529 -2.1392 2.485 4.47352 -8.4708 6.88732 5.73107 9.80436
0.00263 0.95617 0.00219 177.05164 0 -4.26287 6.05065 5.26568 0.51784 -31.75623 -0.52485 2.55977 -11.70596 -69.11207 -86.02496 22.1941 42.81275 -36.12576 2.29911 27.5303 72.42156 64.24295 19.1365 -70.44318 -24.94207 1.50827 -1.41472 6.01881 -3.77673 -10.27017 2.54148 -4.29788 -9.86822 -2.17026 2.46551 4.52443 -8.36727 6.86006 5.7075 9.78487
0.00312 0.95621 0.00262 176.9772 0 -4.26718 5.90174 5.24998 0.54784 -31.71578 -0.51031 2.61029 -11.79738 -69.16316 -86.02466 22.15701 42.82814 -36.15295 2.33098 27.3543 72.363 64.41424 19.12243 -70.50555 -24.87365 1.4863 -1.39544 5.98994 -3.85488 -10.23445 2.52264 -4.26358 -9.74762 -2.20281 2.44065 4.56454 -8.2653 6.83476 5.69071 9.79818
0.00359 0.95624 0.00304 176.91668 0 -4.2709 5.75338 5.23485 0.57155 -31.67713 -0.49849 2.65301 -11.8822 -69.20473 -86.02376 22.12203 42.8314 -36.16938 2.35761 27.19301 72.30664 64.5927 19.09023 -70.55275 -24.81642 1.47453 -1.3885 5.96237 -3.93258 -10.17958 2.49859 -4.22975 -9.63636 -2.23243 2.41777 4.61219 -8.16706 6.8097 5.67067 9.79228
0.0041 0.95628 0.00345 176.8462 0 -4.27778 5.60024 5.22332 0.59734 -31.63169 -0.48159 2.70433 -12.00894 -69.25433 -86.02391 22.08757 42.82975 -36.2018 2.39733 26.99897 72.23676 64.81129 19.05563 -70.61742 -24.74937 1.46084 -1.37285 5.9372 -4.0188 -10.13554 2.47389 -4.19246 -9.51196 -2.27164 2.39694 4.6501 -8.04989 6.77986 5.65108 9.80332
0.00454 0.95632 0.00389 176.79053 0 -4.27817 5.45747 5.20385 0.62172 -31.6004 -0.47461 2.7407 -12.04587 -69.29109 -86.02203 22.05073 42.84666 -36.20442 2.41133 26.86998 72.19544 64.93708 19.03588 -70.65171 -24.69738 1.44598 -1.37002 5.90602 -4.0868 -10.07767 2.45329 -4.16245 -9.41131 -2.29115 2.37046 4.70401 -7.97279 6.76046 5.63251 9.78842
0.00485 0.95634 0.0044 176.78087 0 -4.25922 5.34194 5.16023 0.64008 -31.6072 -0.49435 2.73311 -11.8439 -69.28924 -86.01474 22.0097 42.8944 -36.12217 2.34923 26.9199 72.23351 64.82067 19.04635 -70.59416 -24.69886 1.43385 -1.40752 5.85942 -4.10176 -9.97229 2.44189 -4.15352 -9.38319 -2.25664 2.3304 4.81971 -8.00341 6.76915 5.61199 9.68016
0.0051 0.95636 0.00494 176.78717 0 -4.23405 5.23701 5.10928 0.6564 -31.6284 -0.5244 2.71 -11.55062 -69.27377 -86.00533 21.9662 42.962 -36.0092 2.26182 27.03656 72.29997 64.61138 19.07044 -70.50568 -24.71491 1.42116 -1.45872 5.80683 -4.09895 -9.85201 2.43414 -4.15172 -9.37895 -2.20223 2.28467 4.94928 -8.07463 6.78831 5.59281 9.54704
0.00537 0.95638 0.00549 176.78694 0 -4.21276 5.12796 5.06363 0.67296 -31.64378 -0.55075 2.69367 -11.29402 -69.26382 -85.99665 21.92307 43.02976 -35.90949 2.18864 27.12581 72.35277 64.44102 19.08885 -70.4326 -24.7194 1.40823 -1.50419 5.75689 -4.10692 -9.73851 2.42417 -4.14582 -9.3611 -2.15632 2.24113 5.06246 -8.12912 6.80284 5.57509 9.43451
0.00568 0.9564 0.00597 176.78287 0 -4.18705 5.01601 5.00955 0.69277 -31.65629 -0.57306 2.67878 -11.05665 -69.25699 -85.98896 21.883 43.06113 -35.81315 2.10419 27.20269 72.4091 64.28239 19.10677 -70.35434 -24.74358 1.39657 -1.54718 5.70726 -4.10424 -9.62532 2.41677 -4.14335 -9.35357 -2.11233 2.19921 5.2171 -8.177 6.81693 5.549 9.28462
0.00589 0.95642 0.00659 176.79078 0 -4.16905 4.91257 4.97134 0.70527 -31.67793 -0.60599 2.65722 -10.75871 -69.24057 -85.97871 21.83596 43.1709 -35.70245 2.03701 27.32073 72.46446 64.07879 19.12814 -70.27967 -24.73106 1.38248 -1.59836 5.65544 -4.11847 -9.50861 2.405 -4.13569 -9.33148 -2.06012 2.15244 5.28976 -8.24753 6.83438 5.54042 9.20531
0.00587 0.95642 0.00755 176.82943 0 -4.1742 4.83035 4.97887 0.69697 -31.72361 -0.66821 2.61941 -10.30688 -69.198 -85.9619 21.77118 43.50735 -35.55838 2.0248 27.54171 72.513 63.76507 19.15776 -70.21839 -24.60861 1.36137 -1.67353 5.60032 -4.19334 -9.37611 2.37795 -4.10986 -9.254 -1.98569 2.09519 5.12468 -8.37705 6.85863 5.58108 9.3344
